<svg enable-background="new 0 0 327 206" viewBox="0 0 327 206" xmlns="http://www.w3.org/2000/svg"><path d="m309.757 185c.492 0 .893-.456.89-1.012-.475-92.594-66.173-167.488-147.147-167.488s-146.672 74.894-147.147 167.488c-.003.556.399 1.012.89 1.012z" fill="#f93"/><path d="m318.539 206h-310.078c-4.654 0-8.461-3.807-8.461-8.461v-.839c0-2.585 2.115-4.7 4.7-4.7h317.599c2.585 0 4.701 2.115 4.701 4.7v.839c0 4.654-3.807 8.461-8.461 8.461z" fill="#f93"/><path d="m170.396 34.858c66.385 0 120.636 61.399 120.636 137.313z" fill="#fcfcfc"/><circle cx="163.5" cy="15.5" fill="#f93" r="15.5"/></svg>